<svg xmlns="http://www.w3.org/2000/svg" xmlns:xlink="http://www.w3.org/1999/xlink" width="64" zoomAndPan="magnify" viewBox="0 0 48 48" height="64" preserveAspectRatio="xMidYMid meet" version="1.0"><defs><clipPath id="ec1da23aaa"><path d="M 0.488281 0 L 47.507812 0 L 47.507812 47.019531 L 0.488281 47.019531 Z M 0.488281 0 " clip-rule="nonzero"/></clipPath><clipPath id="a33b338982"><path d="M 9.085938 24 L 39.207031 24 L 39.207031 38.71875 L 9.085938 38.71875 Z M 9.085938 24 " clip-rule="nonzero"/></clipPath><clipPath id="959c9ba7e6"><path d="M 17 8.597656 L 31 8.597656 L 31 23 L 17 23 Z M 17 8.597656 " clip-rule="nonzero"/></clipPath></defs><g clip-path="url(#ec1da23aaa)"><path fill="#ffffff" d="M 0.488281 0 L 47.511719 0 L 47.511719 54.367188 L 0.488281 54.367188 Z M 0.488281 0 " fill-opacity="1" fill-rule="nonzero"/><path fill="#ffffff" d="M 0.488281 0 L 47.511719 0 L 47.511719 47.019531 L 0.488281 47.019531 Z M 0.488281 0 " fill-opacity="1" fill-rule="nonzero"/><path fill="#a6a6a6" d="M 0.488281 0 L 47.511719 0 L 47.511719 47.019531 L 0.488281 47.019531 Z M 0.488281 0 " fill-opacity="1" fill-rule="nonzero"/></g><g clip-path="url(#a33b338982)"><path fill="#ffffff" d="M 28.664062 24.175781 L 19.628906 24.175781 C 13.8125 24.175781 9.085938 28.902344 9.085938 34.71875 L 9.085938 38.199219 C 9.085938 38.511719 9.292969 38.71875 9.605469 38.71875 L 38.6875 38.71875 C 39 38.71875 39.207031 38.511719 39.207031 38.199219 L 39.207031 34.71875 C 39.207031 28.902344 34.480469 24.175781 28.664062 24.175781 Z M 28.664062 24.175781 " fill-opacity="1" fill-rule="nonzero"/></g><g clip-path="url(#959c9ba7e6)"><path fill="#ffffff" d="M 24.148438 22.097656 C 27.886719 22.097656 30.898438 19.085938 30.898438 15.347656 C 30.898438 11.609375 27.886719 8.597656 24.148438 8.597656 C 20.40625 8.597656 17.394531 11.609375 17.394531 15.347656 C 17.394531 19.085938 20.40625 22.097656 24.148438 22.097656 Z M 24.148438 22.097656 " fill-opacity="1" fill-rule="nonzero"/></g></svg>