<svg xmlns="http://www.w3.org/2000/svg" xmlns:xlink="http://www.w3.org/1999/xlink" width="128" zoomAndPan="magnify" viewBox="0 0 96 95.999999" height="128" preserveAspectRatio="xMidYMid meet" version="1.0"><defs><clipPath id="958af13da8"><path d="M 4.554688 4.554688 L 91.617188 4.554688 L 91.617188 91.617188 L 4.554688 91.617188 Z M 4.554688 4.554688 " clip-rule="nonzero"/></clipPath><clipPath id="b4dd54c540"><path d="M 85.792969 91.445312 L 10.207031 91.445312 C 7.09375 91.445312 4.554688 88.90625 4.554688 85.792969 L 4.554688 10.207031 C 4.554688 7.09375 7.09375 4.554688 10.207031 4.554688 L 85.792969 4.554688 C 88.90625 4.554688 91.445312 7.09375 91.445312 10.207031 L 91.445312 85.792969 C 91.445312 88.90625 88.90625 91.445312 85.792969 91.445312 " clip-rule="nonzero"/></clipPath><clipPath id="56c61614d3"><path d="M 20.054688 16.566406 L 41 16.566406 L 41 38 L 20.054688 38 Z M 20.054688 16.566406 " clip-rule="nonzero"/></clipPath><clipPath id="efb4fc7e37"><path d="M 58 53 L 76.304688 53 L 76.304688 72 L 58 72 Z M 58 53 " clip-rule="nonzero"/></clipPath><clipPath id="652d0ece01"><path d="M 25 69 L 36 69 L 36 79.566406 L 25 79.566406 Z M 25 69 " clip-rule="nonzero"/></clipPath><clipPath id="8a2a11ff0e"><path d="M 0 0.277344 L 96 0.277344 L 96 95.832031 L 0 95.832031 Z M 0 0.277344 " clip-rule="nonzero"/></clipPath><clipPath id="1e089b6745"><path d="M 89.757812 3.273438 C 91.539062 3.273438 93.007812 4.738281 93.007812 6.523438 L 93.007812 89.476562 C 93.007812 91.261719 91.539062 92.726562 89.757812 92.726562 L 6.242188 92.726562 C 4.460938 92.726562 2.992188 91.261719 2.992188 89.476562 L 2.992188 6.523438 C 2.992188 4.738281 4.460938 3.273438 6.242188 3.273438 L 89.757812 3.273438 M 89.757812 0.277344 L 6.242188 0.277344 C 2.804688 0.277344 0 3.082031 0 6.523438 L 0 89.476562 C 0 92.917969 2.804688 95.722656 6.242188 95.722656 L 89.757812 95.722656 C 93.195312 95.722656 96 92.917969 96 89.476562 L 96 6.523438 C 96 3.082031 93.195312 0.277344 89.757812 0.277344 " clip-rule="nonzero"/></clipPath></defs><g clip-path="url(#958af13da8)"><g clip-path="url(#b4dd54c540)"><path fill="#5271ff" d="M 4.554688 4.554688 L 91.617188 4.554688 L 91.617188 91.617188 L 4.554688 91.617188 Z M 4.554688 4.554688 " fill-opacity="1" fill-rule="nonzero"/></g></g><g clip-path="url(#56c61614d3)"><path fill="#ffffff" d="M 30.300781 37.117188 C 35.96875 37.117188 40.582031 32.523438 40.582031 26.878906 C 40.582031 21.234375 35.96875 16.640625 30.300781 16.640625 C 24.628906 16.640625 20.019531 21.234375 20.019531 26.878906 C 20.019531 32.523438 24.628906 37.117188 30.300781 37.117188 Z M 30.300781 19.464844 C 34.40625 19.464844 37.746094 22.792969 37.746094 26.878906 C 37.746094 30.96875 34.40625 34.292969 30.300781 34.292969 C 26.195312 34.292969 22.855469 30.96875 22.855469 26.878906 C 22.855469 22.792969 26.195312 19.464844 30.300781 19.464844 Z M 30.300781 19.464844 " fill-opacity="1" fill-rule="nonzero"/></g><g clip-path="url(#efb4fc7e37)"><path fill="#ffffff" d="M 67.445312 53.601562 C 62.578125 53.601562 58.621094 57.546875 58.621094 62.390625 C 58.621094 67.234375 62.578125 71.175781 67.445312 71.175781 C 72.308594 71.175781 76.269531 67.234375 76.269531 62.390625 C 76.269531 57.546875 72.308594 53.601562 67.445312 53.601562 Z M 67.445312 68.351562 C 64.140625 68.351562 61.457031 65.675781 61.457031 62.390625 C 61.457031 59.101562 64.140625 56.429688 67.445312 56.429688 C 70.746094 56.429688 73.429688 59.101562 73.429688 62.390625 C 73.429688 65.675781 70.746094 68.351562 67.445312 68.351562 Z M 67.445312 68.351562 " fill-opacity="1" fill-rule="nonzero"/></g><path fill="#00c2cb" d="M 57.3125 31.152344 C 59.9375 31.152344 62.074219 29.023438 62.074219 26.410156 C 62.074219 23.800781 59.9375 21.671875 57.3125 21.671875 C 54.691406 21.671875 52.554688 23.800781 52.554688 26.410156 C 52.554688 29.023438 54.6875 31.152344 57.3125 31.152344 Z M 57.3125 24.5 C 58.375 24.5 59.234375 25.355469 59.234375 26.410156 C 59.234375 27.46875 58.375 28.324219 57.3125 28.324219 C 56.253906 28.324219 55.390625 27.46875 55.390625 26.410156 C 55.390625 25.355469 56.253906 24.5 57.3125 24.5 Z M 57.3125 24.5 " fill-opacity="1" fill-rule="nonzero"/><path fill="#00c2cb" d="M 32.464844 51.691406 C 32.464844 49.078125 30.328125 46.953125 27.703125 46.953125 C 25.082031 46.953125 22.945312 49.078125 22.945312 51.691406 C 22.945312 54.304688 25.082031 56.429688 27.703125 56.429688 C 30.328125 56.429688 32.464844 54.304688 32.464844 51.691406 Z M 25.78125 51.691406 C 25.78125 50.636719 26.644531 49.777344 27.703125 49.777344 C 28.765625 49.777344 29.625 50.636719 29.625 51.691406 C 29.625 52.746094 28.765625 53.605469 27.703125 53.605469 C 26.644531 53.605469 25.78125 52.746094 25.78125 51.691406 Z M 25.78125 51.691406 " fill-opacity="1" fill-rule="nonzero"/><g clip-path="url(#652d0ece01)"><path fill="#00c2cb" d="M 30.300781 69.945312 C 27.675781 69.945312 25.542969 72.070312 25.542969 74.683594 C 25.542969 77.296875 27.675781 79.421875 30.300781 79.421875 C 32.925781 79.421875 35.058594 77.296875 35.058594 74.683594 C 35.058594 72.070312 32.925781 69.945312 30.300781 69.945312 Z M 30.300781 76.597656 C 29.242188 76.597656 28.378906 75.738281 28.378906 74.683594 C 28.378906 73.628906 29.242188 72.769531 30.300781 72.769531 C 31.359375 72.769531 32.222656 73.628906 32.222656 74.683594 C 32.222656 75.738281 31.359375 76.597656 30.300781 76.597656 Z M 30.300781 76.597656 " fill-opacity="1" fill-rule="nonzero"/></g><path fill="#00d4ff" d="M 59.964844 55.917969 C 60.464844 55.316406 60.378906 54.425781 59.777344 53.929688 L 55.46875 50.375 C 55.886719 49.527344 56.128906 48.574219 56.128906 47.566406 C 56.128906 45.28125 54.914062 43.277344 53.097656 42.144531 L 56.054688 33.433594 C 56.304688 32.695312 55.90625 31.894531 55.164062 31.644531 C 54.417969 31.394531 53.613281 31.789062 53.367188 32.527344 L 50.421875 41.207031 C 50.183594 41.179688 49.945312 41.164062 49.699219 41.164062 C 48.488281 41.164062 47.359375 41.507812 46.390625 42.089844 L 40.988281 35.484375 C 40.492188 34.882812 39.597656 34.789062 38.992188 35.28125 C 38.382812 35.777344 38.292969 36.667969 38.789062 37.269531 L 44.332031 44.046875 C 43.71875 44.972656 43.347656 46.066406 43.285156 47.242188 L 34.40625 49.191406 C 33.640625 49.359375 33.160156 50.113281 33.328125 50.875 C 33.472656 51.535156 34.0625 51.984375 34.710938 51.984375 C 34.8125 51.984375 34.917969 51.972656 35.019531 51.949219 L 43.765625 50.027344 C 44.15625 50.957031 44.765625 51.773438 45.523438 52.421875 L 33.582031 68.09375 C 33.109375 68.714844 33.230469 69.601562 33.855469 70.074219 C 34.113281 70.265625 34.414062 70.359375 34.714844 70.359375 C 35.140625 70.359375 35.566406 70.167969 35.84375 69.800781 L 48.070312 53.753906 C 48.589844 53.886719 49.136719 53.96875 49.699219 53.96875 C 51.207031 53.96875 52.589844 53.445312 53.6875 52.578125 L 57.96875 56.105469 C 58.230469 56.324219 58.550781 56.429688 58.871094 56.429688 C 59.277344 56.429688 59.683594 56.253906 59.964844 55.917969 Z M 49.699219 51.140625 C 47.71875 51.140625 46.109375 49.539062 46.109375 47.566406 C 46.109375 45.59375 47.71875 43.988281 49.699219 43.988281 C 51.679688 43.988281 53.292969 45.59375 53.292969 47.566406 C 53.292969 49.539062 51.679688 51.140625 49.699219 51.140625 Z M 49.699219 51.140625 " fill-opacity="1" fill-rule="nonzero"/><g clip-path="url(#8a2a11ff0e)"><g clip-path="url(#1e089b6745)"><path fill="#00d4ff" d="M 0 0.277344 L 96.191406 0.277344 L 96.191406 95.832031 L 0 95.832031 Z M 0 0.277344 " fill-opacity="1" fill-rule="nonzero"/></g></g></svg>